<svg xmlns="http://www.w3.org/2000/svg" xmlns:xlink="http://www.w3.org/1999/xlink" zoomAndPan="magnify" preserveAspectRatio="xMidYMid meet" version="1.0" viewBox="96.67 104.66 183.18 124.66"><defs><g/><clipPath id="76cbe020a0"><path d="M 112.5 122 L 138 122 L 138 199.914062 L 112.5 199.914062 Z M 112.5 122 " clip-rule="nonzero"/></clipPath><clipPath id="83815a457d"><path d="M 237.703125 122.40625 L 262.496094 122.40625 L 262.496094 199.910156 L 237.703125 199.910156 Z M 237.703125 122.40625 " clip-rule="nonzero"/></clipPath><clipPath id="c424991457"><path d="M 175 104.664062 L 200 104.664062 L 200 131 L 175 131 Z M 175 104.664062 " clip-rule="nonzero"/></clipPath></defs><path fill="#4a87ce" d="M 163.644531 148.097656 C 161.804688 148.097656 160.089844 148.445312 158.5 149.140625 C 156.90625 149.835938 155.527344 150.773438 154.359375 151.953125 C 153.191406 153.132812 152.265625 154.519531 151.582031 156.109375 C 150.898438 157.699219 150.558594 159.390625 150.558594 161.179688 C 150.558594 162.96875 150.898438 164.660156 151.582031 166.25 C 152.265625 167.839844 153.191406 169.226562 154.359375 170.40625 C 155.527344 171.585938 156.90625 172.523438 158.5 173.21875 C 160.089844 173.914062 161.804688 174.261719 163.644531 174.261719 C 165.457031 174.261719 167.160156 173.914062 168.75 173.21875 C 170.339844 172.523438 171.726562 171.578125 172.90625 170.386719 C 174.085938 169.195312 175.015625 167.808594 175.699219 166.230469 C 176.382812 164.652344 176.726562 162.96875 176.726562 161.179688 C 176.726562 159.390625 176.382812 157.707031 175.699219 156.128906 C 175.015625 154.550781 174.085938 153.164062 172.90625 151.972656 C 171.726562 150.78125 170.339844 149.835938 168.75 149.140625 C 167.160156 148.445312 165.457031 148.097656 163.644531 148.097656 Z M 184.515625 161.179688 C 184.515625 166.996094 182.476562 171.914062 178.402344 175.941406 C 174.277344 180.015625 169.359375 182.054688 163.644531 182.054688 C 157.875 182.054688 152.957031 180.015625 148.882812 175.941406 C 144.804688 171.867188 142.769531 166.945312 142.769531 161.179688 C 142.769531 155.414062 144.804688 150.496094 148.882812 146.417969 C 152.957031 142.34375 157.875 140.304688 163.644531 140.304688 C 169.359375 140.304688 174.277344 142.34375 178.402344 146.417969 C 180.441406 148.457031 181.964844 150.707031 182.96875 153.164062 C 183.976562 155.625 184.492188 158.296875 184.515625 161.179688 " fill-opacity="1" fill-rule="nonzero"/><path fill="#4a87ce" d="M 211.355469 148.097656 C 209.515625 148.097656 207.800781 148.445312 206.210938 149.140625 C 204.621094 149.835938 203.242188 150.773438 202.074219 151.953125 C 200.90625 153.132812 199.980469 154.519531 199.296875 156.109375 C 198.613281 157.699219 198.273438 159.390625 198.273438 161.179688 C 198.273438 162.96875 198.613281 164.660156 199.296875 166.25 C 199.980469 167.839844 200.90625 169.226562 202.074219 170.40625 C 203.242188 171.585938 204.621094 172.523438 206.210938 173.21875 C 207.800781 173.914062 209.515625 174.261719 211.355469 174.261719 C 213.167969 174.261719 214.871094 173.914062 216.460938 173.21875 C 218.050781 172.523438 219.4375 171.578125 220.617188 170.386719 C 221.796875 169.195312 222.730469 167.808594 223.414062 166.230469 C 224.097656 164.652344 224.4375 162.96875 224.4375 161.179688 C 224.4375 159.390625 224.097656 157.707031 223.414062 156.128906 C 222.730469 154.550781 221.796875 153.164062 220.617188 151.972656 C 219.4375 150.78125 218.050781 149.835938 216.460938 149.140625 C 214.871094 148.445312 213.167969 148.097656 211.355469 148.097656 Z M 232.230469 161.179688 C 232.230469 166.996094 230.191406 171.914062 226.117188 175.941406 C 221.992188 180.015625 217.070312 182.054688 211.355469 182.054688 C 205.589844 182.054688 200.667969 180.015625 196.59375 175.941406 C 192.519531 171.867188 190.480469 166.945312 190.480469 161.179688 C 190.480469 155.414062 192.519531 150.496094 196.59375 146.417969 C 200.667969 142.34375 205.589844 140.304688 211.355469 140.304688 C 217.070312 140.304688 221.992188 142.34375 226.117188 146.417969 C 228.152344 148.457031 229.675781 150.707031 230.683594 153.164062 C 231.6875 155.625 232.203125 158.296875 232.230469 161.179688 " fill-opacity="1" fill-rule="nonzero"/><g clip-path="url(#76cbe020a0)"><path fill="#211d1d" d="M 133.375 122.449219 C 134.492188 122.449219 135.417969 122.828125 136.152344 123.585938 C 136.882812 124.34375 137.25 125.269531 137.25 126.363281 C 137.25 127.484375 136.882812 128.410156 136.152344 129.140625 C 135.417969 129.875 134.492188 130.242188 133.375 130.242188 C 130.292969 130.242188 128.753906 131.78125 128.753906 134.863281 L 128.753906 152.679688 C 128.753906 156.257812 127.933594 159.09375 126.292969 161.179688 C 127.933594 163.265625 128.753906 166.101562 128.753906 169.679688 L 128.753906 187.496094 C 128.753906 190.578125 130.292969 192.121094 133.375 192.121094 C 134.492188 192.121094 135.417969 192.484375 136.152344 193.21875 C 136.882812 193.953125 137.25 194.875 137.25 195.996094 C 137.25 197.113281 136.882812 198.046875 136.152344 198.792969 C 135.417969 199.535156 134.492188 199.910156 133.375 199.910156 C 125.097656 199.910156 120.960938 195.773438 120.960938 187.496094 L 120.960938 169.679688 C 120.960938 166.597656 119.433594 165.054688 116.375 165.054688 C 115.257812 165.054688 114.332031 164.691406 113.597656 163.957031 C 112.867188 163.222656 112.5 162.296875 112.5 161.179688 C 112.5 160.0625 112.867188 159.136719 113.597656 158.402344 C 114.332031 157.671875 115.257812 157.304688 116.375 157.304688 C 119.433594 157.304688 120.960938 155.761719 120.960938 152.679688 L 120.960938 134.863281 C 120.960938 126.585938 125.097656 122.449219 133.375 122.449219 " fill-opacity="1" fill-rule="nonzero"/></g><g clip-path="url(#83815a457d)"><path fill="#211d1d" d="M 254.035156 134.863281 L 254.035156 152.679688 C 254.035156 155.761719 255.5625 157.304688 258.621094 157.304688 C 259.738281 157.304688 260.664062 157.671875 261.398438 158.402344 C 262.132812 159.136719 262.496094 160.0625 262.496094 161.179688 C 262.496094 162.296875 262.132812 163.222656 261.398438 163.957031 C 260.664062 164.691406 259.738281 165.054688 258.621094 165.054688 C 255.5625 165.054688 254.035156 166.597656 254.035156 169.679688 L 254.035156 187.496094 C 254.035156 195.773438 249.898438 199.910156 241.621094 199.910156 C 240.503906 199.910156 239.578125 199.535156 238.84375 198.792969 C 238.113281 198.046875 237.746094 197.113281 237.746094 195.996094 C 237.746094 194.875 238.113281 193.953125 238.84375 193.21875 C 239.578125 192.484375 240.503906 192.121094 241.621094 192.121094 C 244.703125 192.121094 246.246094 190.578125 246.246094 187.496094 L 246.246094 169.679688 C 246.246094 166.101562 247.066406 163.265625 248.707031 161.179688 C 247.066406 159.09375 246.246094 156.257812 246.246094 152.679688 L 246.246094 134.863281 C 246.246094 131.78125 244.703125 130.242188 241.621094 130.242188 C 240.503906 130.242188 239.578125 129.875 238.84375 129.140625 C 238.113281 128.410156 237.746094 127.484375 237.746094 126.363281 C 237.746094 125.269531 238.113281 124.34375 238.84375 123.585938 C 239.578125 122.828125 240.503906 122.449219 241.621094 122.449219 C 249.898438 122.449219 254.035156 126.585938 254.035156 134.863281 " fill-opacity="1" fill-rule="nonzero"/></g><g clip-path="url(#c424991457)"><path fill="#211d1d" d="M 199.167969 125.539062 C 199.167969 126.1875 199.042969 126.789062 198.792969 127.347656 C 198.542969 127.90625 198.214844 128.398438 197.804688 128.820312 C 197.394531 129.242188 196.902344 129.574219 196.332031 129.808594 C 195.761719 130.046875 195.164062 130.164062 194.542969 130.164062 C 193.398438 130.164062 192.417969 129.765625 191.597656 128.96875 C 190.777344 128.175781 190.109375 127.199219 189.585938 126.042969 C 189.0625 124.886719 188.683594 123.695312 188.449219 122.464844 C 188.214844 121.234375 188.09375 120.085938 188.09375 119.019531 C 188.09375 114.617188 189.972656 110.171875 193.722656 105.671875 C 194.394531 105 195.152344 104.667969 195.996094 104.667969 C 196.867188 104.667969 197.613281 104.976562 198.234375 105.597656 C 198.855469 106.21875 199.167969 106.964844 199.167969 107.835938 C 199.167969 108.257812 199.078125 108.691406 198.90625 109.140625 C 197.785156 111.875 197.226562 114.46875 197.226562 116.929688 C 197.226562 119.265625 197.734375 121.527344 198.753906 123.714844 C 199.03125 124.335938 199.167969 124.945312 199.167969 125.539062 Z M 186.902344 125.539062 C 186.902344 126.1875 186.777344 126.789062 186.53125 127.347656 C 186.28125 127.90625 185.953125 128.398438 185.542969 128.820312 C 185.132812 129.242188 184.640625 129.574219 184.070312 129.808594 C 183.496094 130.046875 182.902344 130.164062 182.28125 130.164062 C 181.136719 130.164062 180.15625 129.765625 179.335938 128.96875 C 178.515625 128.175781 177.84375 127.199219 177.324219 126.042969 C 176.800781 124.886719 176.421875 123.695312 176.183594 122.464844 C 175.949219 121.234375 175.832031 120.085938 175.832031 119.019531 C 175.832031 114.617188 177.707031 110.171875 181.460938 105.671875 C 182.128906 105 182.886719 104.667969 183.734375 104.667969 C 184.601562 104.667969 185.347656 104.976562 185.96875 105.597656 C 186.589844 106.21875 186.902344 106.964844 186.902344 107.835938 C 186.902344 108.257812 186.816406 108.691406 186.640625 109.140625 C 185.523438 111.875 184.964844 114.46875 184.964844 116.929688 C 184.964844 119.265625 185.472656 121.527344 186.492188 123.714844 C 186.765625 124.335938 186.902344 124.945312 186.902344 125.539062 " fill-opacity="1" fill-rule="nonzero"/></g><g fill="#4a87ce" fill-opacity="1"><g transform="translate(94.482407, 229.044652)"><g><path d="M 11.71875 -5.796875 L 8.359375 -5.796875 L 8.359375 0 L 2.1875 0 L 2.1875 -21.8125 L 12.15625 -21.8125 C 14.132812 -21.8125 15.847656 -21.484375 17.296875 -20.828125 C 18.753906 -20.179688 19.875 -19.25 20.65625 -18.03125 C 21.445312 -16.8125 21.84375 -15.382812 21.84375 -13.75 C 21.84375 -12.164062 21.472656 -10.785156 20.734375 -9.609375 C 20.003906 -8.441406 18.953125 -7.523438 17.578125 -6.859375 L 22.28125 0 L 15.671875 0 Z M 15.609375 -13.75 C 15.609375 -14.769531 15.285156 -15.554688 14.640625 -16.109375 C 14.003906 -16.671875 13.050781 -16.953125 11.78125 -16.953125 L 8.359375 -16.953125 L 8.359375 -10.5625 L 11.78125 -10.5625 C 13.050781 -10.5625 14.003906 -10.835938 14.640625 -11.390625 C 15.285156 -11.941406 15.609375 -12.726562 15.609375 -13.75 Z M 15.609375 -13.75 "/></g></g></g><g fill="#4a87ce" fill-opacity="1"><g transform="translate(117.54962, 229.044652)"><g><path d="M 19.171875 -8.421875 C 19.171875 -8.378906 19.140625 -7.890625 19.078125 -6.953125 L 6.796875 -6.953125 C 7.046875 -6.078125 7.53125 -5.40625 8.25 -4.9375 C 8.96875 -4.46875 9.863281 -4.234375 10.9375 -4.234375 C 11.75 -4.234375 12.453125 -4.347656 13.046875 -4.578125 C 13.640625 -4.804688 14.238281 -5.179688 14.84375 -5.703125 L 17.953125 -2.46875 C 16.316406 -0.632812 13.914062 0.28125 10.75 0.28125 C 8.78125 0.28125 7.046875 -0.09375 5.546875 -0.84375 C 4.046875 -1.59375 2.882812 -2.628906 2.0625 -3.953125 C 1.25 -5.285156 0.84375 -6.796875 0.84375 -8.484375 C 0.84375 -10.140625 1.238281 -11.628906 2.03125 -12.953125 C 2.832031 -14.273438 3.941406 -15.304688 5.359375 -16.046875 C 6.773438 -16.796875 8.363281 -17.171875 10.125 -17.171875 C 11.8125 -17.171875 13.335938 -16.820312 14.703125 -16.125 C 16.078125 -15.4375 17.164062 -14.429688 17.96875 -13.109375 C 18.769531 -11.785156 19.171875 -10.222656 19.171875 -8.421875 Z M 10.15625 -12.96875 C 9.25 -12.96875 8.488281 -12.707031 7.875 -12.1875 C 7.257812 -11.664062 6.867188 -10.957031 6.703125 -10.0625 L 13.625 -10.0625 C 13.457031 -10.957031 13.066406 -11.664062 12.453125 -12.1875 C 11.835938 -12.707031 11.070312 -12.96875 10.15625 -12.96875 Z M 10.15625 -12.96875 "/></g></g></g><g fill="#4a87ce" fill-opacity="1"><g transform="translate(137.561994, 229.044652)"><g><path d="M 9.109375 -17.171875 C 11.910156 -17.171875 14.046875 -16.53125 15.515625 -15.25 C 16.992188 -13.976562 17.734375 -12.019531 17.734375 -9.375 L 17.734375 0 L 12.21875 0 L 12.21875 -2.1875 C 11.363281 -0.539062 9.703125 0.28125 7.234375 0.28125 C 5.921875 0.28125 4.785156 0.0507812 3.828125 -0.40625 C 2.878906 -0.863281 2.160156 -1.476562 1.671875 -2.25 C 1.179688 -3.03125 0.9375 -3.921875 0.9375 -4.921875 C 0.9375 -6.523438 1.546875 -7.765625 2.765625 -8.640625 C 3.992188 -9.523438 5.890625 -9.96875 8.453125 -9.96875 L 11.8125 -9.96875 C 11.707031 -11.757812 10.515625 -12.65625 8.234375 -12.65625 C 7.421875 -12.65625 6.597656 -12.523438 5.765625 -12.265625 C 4.929688 -12.003906 4.222656 -11.644531 3.640625 -11.1875 L 1.65625 -15.21875 C 2.59375 -15.832031 3.726562 -16.3125 5.0625 -16.65625 C 6.40625 -17 7.753906 -17.171875 9.109375 -17.171875 Z M 8.890625 -3.453125 C 9.566406 -3.453125 10.164062 -3.617188 10.6875 -3.953125 C 11.207031 -4.285156 11.582031 -4.773438 11.8125 -5.421875 L 11.8125 -6.890625 L 9.265625 -6.890625 C 7.535156 -6.890625 6.671875 -6.316406 6.671875 -5.171875 C 6.671875 -4.648438 6.867188 -4.234375 7.265625 -3.921875 C 7.660156 -3.609375 8.203125 -3.453125 8.890625 -3.453125 Z M 8.890625 -3.453125 "/></g></g></g><g fill="#4a87ce" fill-opacity="1"><g transform="translate(157.137959, 229.044652)"><g><path d="M 10.53125 0.28125 C 8.664062 0.28125 6.992188 -0.09375 5.515625 -0.84375 C 4.035156 -1.59375 2.882812 -2.628906 2.0625 -3.953125 C 1.25 -5.285156 0.84375 -6.796875 0.84375 -8.484375 C 0.84375 -10.160156 1.25 -11.660156 2.0625 -12.984375 C 2.882812 -14.304688 4.035156 -15.332031 5.515625 -16.0625 C 6.992188 -16.800781 8.664062 -17.171875 10.53125 -17.171875 C 12.445312 -17.171875 14.097656 -16.757812 15.484375 -15.9375 C 16.878906 -15.125 17.867188 -13.988281 18.453125 -12.53125 L 13.875 -10.1875 C 13.101562 -11.707031 11.976562 -12.46875 10.5 -12.46875 C 9.445312 -12.46875 8.570312 -12.113281 7.875 -11.40625 C 7.175781 -10.695312 6.828125 -9.722656 6.828125 -8.484375 C 6.828125 -7.210938 7.175781 -6.21875 7.875 -5.5 C 8.570312 -4.78125 9.445312 -4.421875 10.5 -4.421875 C 11.976562 -4.421875 13.101562 -5.179688 13.875 -6.703125 L 18.453125 -4.359375 C 17.867188 -2.910156 16.878906 -1.773438 15.484375 -0.953125 C 14.097656 -0.128906 12.445312 0.28125 10.53125 0.28125 Z M 10.53125 0.28125 "/></g></g></g><g fill="#4a87ce" fill-opacity="1"><g transform="translate(175.934626, 229.044652)"><g><path d="M 13.5625 -0.6875 C 13.0625 -0.375 12.453125 -0.132812 11.734375 0.03125 C 11.015625 0.195312 10.25 0.28125 9.4375 0.28125 C 7.238281 0.28125 5.546875 -0.257812 4.359375 -1.34375 C 3.179688 -2.425781 2.59375 -4.035156 2.59375 -6.171875 L 2.59375 -11.84375 L 0.125 -11.84375 L 0.125 -16.265625 L 2.59375 -16.265625 L 2.59375 -20.671875 L 8.515625 -20.671875 L 8.515625 -16.265625 L 12.375 -16.265625 L 12.375 -11.84375 L 8.515625 -11.84375 L 8.515625 -6.234375 C 8.515625 -5.628906 8.671875 -5.15625 8.984375 -4.8125 C 9.304688 -4.46875 9.738281 -4.296875 10.28125 -4.296875 C 10.96875 -4.296875 11.570312 -4.472656 12.09375 -4.828125 Z M 13.5625 -0.6875 "/></g></g></g><g fill="#211d1d" fill-opacity="1"><g transform="translate(189.861307, 229.044652)"><g><path d="M 11.71875 -5.796875 L 8.359375 -5.796875 L 8.359375 0 L 2.1875 0 L 2.1875 -21.8125 L 12.15625 -21.8125 C 14.132812 -21.8125 15.847656 -21.484375 17.296875 -20.828125 C 18.753906 -20.179688 19.875 -19.25 20.65625 -18.03125 C 21.445312 -16.8125 21.84375 -15.382812 21.84375 -13.75 C 21.84375 -12.164062 21.472656 -10.785156 20.734375 -9.609375 C 20.003906 -8.441406 18.953125 -7.523438 17.578125 -6.859375 L 22.28125 0 L 15.671875 0 Z M 15.609375 -13.75 C 15.609375 -14.769531 15.285156 -15.554688 14.640625 -16.109375 C 14.003906 -16.671875 13.050781 -16.953125 11.78125 -16.953125 L 8.359375 -16.953125 L 8.359375 -10.5625 L 11.78125 -10.5625 C 13.050781 -10.5625 14.003906 -10.835938 14.640625 -11.390625 C 15.285156 -11.941406 15.609375 -12.726562 15.609375 -13.75 Z M 15.609375 -13.75 "/></g></g></g><g fill="#211d1d" fill-opacity="1"><g transform="translate(212.92852, 229.044652)"><g><path d="M 10.375 0.28125 C 8.570312 0.28125 6.941406 -0.09375 5.484375 -0.84375 C 4.023438 -1.59375 2.882812 -2.628906 2.0625 -3.953125 C 1.25 -5.285156 0.84375 -6.796875 0.84375 -8.484375 C 0.84375 -10.140625 1.25 -11.632812 2.0625 -12.96875 C 2.882812 -14.300781 4.019531 -15.332031 5.46875 -16.0625 C 6.914062 -16.800781 8.550781 -17.171875 10.375 -17.171875 C 12.207031 -17.171875 13.847656 -16.800781 15.296875 -16.0625 C 16.753906 -15.332031 17.890625 -14.304688 18.703125 -12.984375 C 19.515625 -11.660156 19.921875 -10.160156 19.921875 -8.484375 C 19.921875 -6.796875 19.515625 -5.285156 18.703125 -3.953125 C 17.890625 -2.628906 16.753906 -1.59375 15.296875 -0.84375 C 13.847656 -0.09375 12.207031 0.28125 10.375 0.28125 Z M 10.375 -4.421875 C 11.414062 -4.421875 12.269531 -4.78125 12.9375 -5.5 C 13.601562 -6.21875 13.9375 -7.210938 13.9375 -8.484375 C 13.9375 -9.722656 13.601562 -10.695312 12.9375 -11.40625 C 12.269531 -12.113281 11.414062 -12.46875 10.375 -12.46875 C 9.34375 -12.46875 8.492188 -12.113281 7.828125 -11.40625 C 7.160156 -10.695312 6.828125 -9.722656 6.828125 -8.484375 C 6.828125 -7.210938 7.160156 -6.21875 7.828125 -5.5 C 8.492188 -4.78125 9.34375 -4.421875 10.375 -4.421875 Z M 10.375 -4.421875 "/></g></g></g><g fill="#211d1d" fill-opacity="1"><g transform="translate(233.689017, 229.044652)"><g><path d="M 1.90625 -23.125 L 7.828125 -23.125 L 7.828125 0 L 1.90625 0 Z M 1.90625 -23.125 "/></g></g></g><g fill="#211d1d" fill-opacity="1"><g transform="translate(243.445826, 229.044652)"><g><path d="M 19.171875 -8.421875 C 19.171875 -8.378906 19.140625 -7.890625 19.078125 -6.953125 L 6.796875 -6.953125 C 7.046875 -6.078125 7.53125 -5.40625 8.25 -4.9375 C 8.96875 -4.46875 9.863281 -4.234375 10.9375 -4.234375 C 11.75 -4.234375 12.453125 -4.347656 13.046875 -4.578125 C 13.640625 -4.804688 14.238281 -5.179688 14.84375 -5.703125 L 17.953125 -2.46875 C 16.316406 -0.632812 13.914062 0.28125 10.75 0.28125 C 8.78125 0.28125 7.046875 -0.09375 5.546875 -0.84375 C 4.046875 -1.59375 2.882812 -2.628906 2.0625 -3.953125 C 1.25 -5.285156 0.84375 -6.796875 0.84375 -8.484375 C 0.84375 -10.140625 1.238281 -11.628906 2.03125 -12.953125 C 2.832031 -14.273438 3.941406 -15.304688 5.359375 -16.046875 C 6.773438 -16.796875 8.363281 -17.171875 10.125 -17.171875 C 11.8125 -17.171875 13.335938 -16.820312 14.703125 -16.125 C 16.078125 -15.4375 17.164062 -14.429688 17.96875 -13.109375 C 18.769531 -11.785156 19.171875 -10.222656 19.171875 -8.421875 Z M 10.15625 -12.96875 C 9.25 -12.96875 8.488281 -12.707031 7.875 -12.1875 C 7.257812 -11.664062 6.867188 -10.957031 6.703125 -10.0625 L 13.625 -10.0625 C 13.457031 -10.957031 13.066406 -11.664062 12.453125 -12.1875 C 11.835938 -12.707031 11.070312 -12.96875 10.15625 -12.96875 Z M 10.15625 -12.96875 "/></g></g></g><g fill="#211d1d" fill-opacity="1"><g transform="translate(263.458199, 229.044652)"><g><path d="M 8.046875 0.28125 C 6.628906 0.28125 5.234375 0.117188 3.859375 -0.203125 C 2.492188 -0.523438 1.394531 -0.945312 0.5625 -1.46875 L 2.34375 -5.515625 C 3.101562 -5.035156 4.015625 -4.65625 5.078125 -4.375 C 6.140625 -4.09375 7.191406 -3.953125 8.234375 -3.953125 C 9.179688 -3.953125 9.859375 -4.050781 10.265625 -4.25 C 10.671875 -4.445312 10.875 -4.734375 10.875 -5.109375 C 10.875 -5.484375 10.628906 -5.75 10.140625 -5.90625 C 9.648438 -6.0625 8.878906 -6.210938 7.828125 -6.359375 C 6.472656 -6.523438 5.320312 -6.742188 4.375 -7.015625 C 3.4375 -7.285156 2.625 -7.78125 1.9375 -8.5 C 1.25 -9.226562 0.90625 -10.25 0.90625 -11.5625 C 0.90625 -12.644531 1.226562 -13.601562 1.875 -14.4375 C 2.519531 -15.28125 3.457031 -15.945312 4.6875 -16.4375 C 5.925781 -16.925781 7.410156 -17.171875 9.140625 -17.171875 C 10.359375 -17.171875 11.570312 -17.046875 12.78125 -16.796875 C 13.988281 -16.546875 14.992188 -16.191406 15.796875 -15.734375 L 14.03125 -11.71875 C 12.53125 -12.550781 10.910156 -12.96875 9.171875 -12.96875 C 8.234375 -12.96875 7.546875 -12.859375 7.109375 -12.640625 C 6.671875 -12.421875 6.453125 -12.132812 6.453125 -11.78125 C 6.453125 -11.382812 6.691406 -11.109375 7.171875 -10.953125 C 7.648438 -10.796875 8.4375 -10.632812 9.53125 -10.46875 C 10.925781 -10.257812 12.082031 -10.019531 13 -9.75 C 13.914062 -9.476562 14.707031 -8.984375 15.375 -8.265625 C 16.050781 -7.554688 16.390625 -6.554688 16.390625 -5.265625 C 16.390625 -4.203125 16.066406 -3.25 15.421875 -2.40625 C 14.785156 -1.570312 13.835938 -0.914062 12.578125 -0.4375 C 11.316406 0.0390625 9.804688 0.28125 8.046875 0.28125 Z M 8.046875 0.28125 "/></g></g></g></svg>